<?xml version="1.0" encoding="UTF-8" standalone="no"?>
<svg
   xmlns:dc="http://purl.org/dc/elements/1.1/"
   xmlns:cc="http://creativecommons.org/ns#"
   xmlns:rdf="http://www.w3.org/1999/02/22-rdf-syntax-ns#"
   xmlns:svg="http://www.w3.org/2000/svg"
   xmlns="http://www.w3.org/2000/svg"
   viewBox="0 0 3200 2240"
   height="2240"
   width="3200"
   xml:space="preserve"
   id="svg2"
   version="1.1"><metadata
     id="metadata8"><rdf:RDF><cc:Work
         rdf:about=""><dc:format>image/svg+xml</dc:format><dc:type
           rdf:resource="http://purl.org/dc/dcmitype/StillImage" /></cc:Work></rdf:RDF></metadata><defs
     id="defs6" /><g
     transform="matrix(1.3333333,0,0,-1.3333333,0,2240)"
     id="g10"><g
       transform="scale(0.1)"
       id="g12"><g
         transform="scale(1.47239)"
         id="g14"><path
           id="path16"
           style="fill:#ffffff;fill-opacity:1;fill-rule:evenodd;stroke:none"
           d="M 0,0 H 16300 V 11410 H 0 V 0" /></g><g
         transform="scale(1.46798)"
         id="g18"><path
           id="path20"
           style="fill:none;stroke:#000000;stroke-width:49.04510117;stroke-linecap:round;stroke-linejoin:round;stroke-miterlimit:22.92560005;stroke-dasharray:none;stroke-opacity:1"
           d="m 49.0498,2238.05 c 1793.7902,0 3587.5902,0 4484.4902,0 896.89,0 896.89,0 900.5,278.82 3.59,278.89 10.79,836.59 25.18,1234.21 14.39,397.63 35.98,635.1 167.31,793.41 131.34,158.31 372.41,237.47 1241.23,258.31 868.81,20.85 2365.36,-16.63 3119.94,-48.87 754.6,-32.23 767.2,-59.21 760.2,-255.9 -7.1,-196.66 -33.6,-563.02 -32.3,-964.25 1.4,-401.17 30.7,-837.21 23.7,-1066.03 -6.9,-228.82 -50.1,-250.41 -906.78,-252.32 -856.69,-1.97 -2526.81,15.74 -3363.7,37.13 -836.89,21.46 -840.48,46.66 -855.48,269.01 -14.99,222.28 -41.38,641.83 1.2,927.13 42.58,285.29 154.12,436.45 267.47,513.76 113.34,77.39 228.48,81 368.81,-94.41 140.33,-175.41 305.85,-529.85 458.77,-543.33 152.92,-13.49 293.25,313.9 447.96,501.91 154.77,188.01 323.84,236.58 454.29,111.58 130.46,-125.07 222.21,-423.71 345.45,-586.52 123.23,-162.81 277.93,-189.78 435.97,-39.71 158.04,150.07 319.35,477.19 425.48,502.39 106.14,25.14 157.09,-251.57 275.28,-428.69 118.12,-177.04 303.41,-254.36 438.09,-137.6 134.6,116.83 218.6,427.73 345.44,560.84 126.75,133.17 296.55,88.49 400.25,-57.09 103.8,-145.57 141.5,-392.03 186.5,-496.39 45,-104.37 97.2,-66.56 115.2,131.4 18.1,197.89 2,556.07 -5.3,740.41 -7.4,184.33 -6.1,194.89 -484.1,229.02 -478.02,34.13 -1435.39,91.83 -2198.35,99.12 -762.95,7.22 -1331.48,-35.97 -1621.13,-10.76 -289.66,25.2 -300.46,118.73 -305.85,496.41 -5.4,377.66 -5.4,1039.43 12.59,1399.1 17.99,359.67 53.97,417.24 345.42,458.62 291.46,41.38 838.38,66.57 1468.09,53.97 629.64,-12.59 1342.12,-62.96 1712.76,-120.53 370.58,-57.58 399.4,-122.35 405.94,-296.71 6.6,-174.36 -9,-458.31 -48.23,-516.64 -39.31,-58.32 -102.25,109 -174.26,251.13 -71.93,142.13 -152.93,259.06 -259.54,280.03 -106.68,20.96 -238.97,-54.04 -340.94,-163.95 -101.91,-109.89 -173.51,-254.66 -253.96,-297.23 -80.45,-42.55 -169.82,17.13 -244.21,115.33 -74.32,98.21 -133.72,234.93 -229.98,321.29 -96.26,86.36 -229.36,122.34 -348.1,36.89 -118.73,-85.47 -223.09,-292.37 -334.61,-399.41 -111.58,-107.05 -230.32,-114.24 -309.47,-23.39 -79.16,90.85 -118.74,279.76 -223.1,403.9 -104.36,124.13 -273.44,183.51 -426.38,35.08 -152.93,-148.42 -289.66,-504.65 -397.6,-529.83 -107.95,-25.18 -187.11,280.66 -211.7,523.39 -24.58,242.73 5.4,422.33 178.72,508.54 173.31,86.21 489.95,79.01 651.85,77.21 161.92,-1.8 169.14,1.8 163.76,116.94 -5.45,115.15 -23.43,341.83 -33.31,534.34 -9.88,192.5 -11.72,350.82 53.95,438.07 65.67,87.26 198.85,103.45 272.62,194.31 73.71,90.85 88.15,256.37 42.24,394.9 -45.85,138.53 -152.05,250.07 -184.4,331.04 -32.36,80.95 8.99,131.33 55.79,141.23 46.79,9.89 98.91,-20.69 79.15,-90.86 -19.82,-70.17 -111.58,-179.91 -190.74,-273.46 -79.15,-93.55 -145.71,-170.92 -145.71,-239.28 0,-68.36 66.56,-127.74 152.05,-184.41 85.42,-56.67 189.78,-110.65 227.59,-337.33 37.74,-226.69 8.99,-626.08 -3.61,-831.18 -12.6,-205.11 -8.99,-215.9 71.94,-220.39 80.99,-4.51 239.3,-2.7 354.43,0.89 115.12,3.6 187.13,9 230.59,8.7 43.46,-0.3 58.45,-6.29 66.56,14.39 8.1,20.69 9.33,68.07 22.47,230.28 13.22,162.23 38.42,439.29 49.19,621.89 10.83,182.61 7.22,270.77 -47.69,344.53 -54.83,73.77 -160.97,133.13 -236.58,222.19 -75.55,89.05 -120.51,207.8 -76.43,311.25 44.07,103.45 177.18,191.6 244.69,263.57 67.44,71.96 69.28,127.73 35.08,143.02 -34.2,15.3 -104.36,-9.89 -112.47,-65.67 -8.1,-55.77 45.92,-142.12 94.49,-213.19 48.56,-71.07 91.76,-126.83 88.14,-207.79 -3.61,-80.96 -53.95,-187.11 -122.34,-263.57 -68.39,-76.46 -154.7,-123.24 -197.01,-178.12 -42.3,-54.86 -40.46,-117.83 -35.08,-330.13 5.38,-212.29 14.37,-573.91 18.87,-761.02 4.5,-187.1 4.5,-199.7 54.91,-203.3 50.34,-3.59 151.09,1.81 327.45,6.31 176.3,4.49 428.14,8.09 558.87,8.69 130.72,0.6 140.33,-1.8 147.55,11.69 7.22,13.5 11.99,42.88 15.26,139.43 3.34,96.55 5.11,260.27 7.83,451.88 2.66,191.6 6.27,411.09 -2.72,539.73 -9,128.63 -30.59,166.41 -89.92,206.89 -59.41,40.48 -156.54,83.66 -217.72,161.02 -61.17,77.36 -86.38,188.91 -47.68,286.06 38.69,97.15 141.28,179.91 202.38,250.07 61.18,70.17 81,127.74 62.13,162.82 -18.94,35.08 -76.5,47.68 -105.25,18.89 -28.81,-28.78 -28.81,-98.95 16.15,-176.31 45.03,-77.37 134.95,-161.92 183.52,-243.78 48.57,-81.86 55.79,-161.02 17.98,-221.29 -37.74,-60.27 -120.51,-101.65 -189.78,-139.43 -69.28,-37.78 -125.07,-71.96 -135.84,-167.32 -10.83,-95.35 23.37,-251.87 26.98,-483.05 3.61,-231.19 -23.37,-537.03 -32.36,-695.36 -8.99,-158.32 0,-169.11 192.51,-174.5 192.51,-5.41 568.47,-5.41 794.29,-24.3 225.75,-18.89 301.37,-56.67 340.97,-125.93 39.6,-69.27 43.1,-170.02 37.7,-553.77 -5.4,-383.75 -19.7,-1050.49 -19.9,-1369.68 -0.2,-319.21 13.9,-290.81 179.3,-286.51 165.4,4.29 482,-15.54 624.1,-56 142.1,-40.46 109.8,-101.64 99.9,-486.66 -9.9,-385.02 2.7,-1093.88 5.4,-1444.71 2.6,-350.82 -4.5,-343.6 888.8,-338.35 893.3,5.24 2687.1,8.51 4480.9,11.85" /></g></g></g></svg>